<svg width="164" height="164" viewBox="0 0 164 164" fill="none" xmlns="http://www.w3.org/2000/svg">
<circle cx="82" cy="82" r="82" fill="white"/>
<path d="M112.594 72.2531L112.516 71.7281L112.434 71.7469C111.879 69.1501 110.6 66.7636 108.745 64.8636C106.89 62.9635 104.535 61.6276 101.952 61.0103C99.3691 60.3929 96.6644 60.5195 94.1506 61.3753C91.6369 62.2312 89.4168 63.7812 87.7472 65.8462C86.0777 67.9112 85.027 70.4067 84.7166 73.044C84.4063 75.6813 84.849 78.3525 85.9935 80.7487C87.1381 83.1448 88.9377 85.1679 91.1841 86.5839C93.4306 87.9999 96.032 88.7509 98.6875 88.75C99.3844 88.75 100.053 88.6438 100.719 88.5469C100.503 89.2719 100.281 90.0094 99.925 90.6719C99.5687 91.6344 99.0125 92.4687 98.4594 93.3094C97.9969 94.2188 97.1812 94.8344 96.5812 95.6125C95.9531 96.3687 95.0969 96.8719 94.4187 97.5C93.7531 98.1562 92.8812 98.4844 92.1875 98.9469C91.4625 99.3625 90.8312 99.8219 90.1562 100.041L88.4719 100.734L86.9906 101.35L88.5031 107.409L90.3687 106.959C90.9656 106.809 91.6937 106.634 92.5219 106.425C93.3687 106.269 94.2719 105.841 95.2781 105.45C96.2687 105.003 97.4219 104.706 98.4906 103.991C99.5656 103.309 100.806 102.741 101.9 101.828C102.959 100.887 104.237 100.072 105.181 98.8781C106.212 97.7594 107.231 96.5844 108.022 95.2469C108.937 93.9719 109.559 92.5719 110.216 91.1875C110.809 89.8031 111.287 88.3875 111.678 87.0125C112.419 84.2563 112.75 81.6375 112.878 79.3969C112.984 77.1531 112.922 75.2875 112.791 73.9375C112.747 73.3737 112.681 72.8118 112.594 72.2531ZM78.2187 72.2531L78.1406 71.7281L78.0594 71.7469C77.5041 69.1501 76.2249 66.7636 74.3698 64.8636C72.5147 62.9635 70.1596 61.6276 67.5768 61.0103C64.9941 60.3929 62.2894 60.5195 59.7756 61.3753C57.2618 62.2312 55.0418 63.7812 53.3722 65.8462C51.7027 67.9112 50.652 70.4067 50.3416 73.044C50.0313 75.6813 50.474 78.3525 51.6185 80.7487C52.7631 83.1448 54.5627 85.1679 56.8091 86.5839C59.0556 87.9999 61.657 88.7509 64.3125 88.75C65.0094 88.75 65.6781 88.6438 66.3437 88.5469C66.1281 89.2719 65.9062 90.0094 65.55 90.6719C65.1937 91.6344 64.6375 92.4687 64.0844 93.3094C63.6219 94.2188 62.8062 94.8344 62.2062 95.6125C61.5781 96.3687 60.7219 96.8719 60.0437 97.5C59.3781 98.1562 58.5062 98.4844 57.8125 98.9469C57.0875 99.3625 56.4562 99.8219 55.7812 100.041L54.0969 100.734C53.1562 101.119 52.6187 101.344 52.6187 101.344L54.1312 107.403L55.9969 106.953C56.5937 106.803 57.3219 106.628 58.15 106.419C58.9969 106.262 59.9 105.834 60.9062 105.444C61.8969 104.997 63.05 104.7 64.1187 103.984C65.1937 103.303 66.4344 102.734 67.5281 101.822C68.5875 100.881 69.8656 100.066 70.8094 98.8719C71.8406 97.7531 72.8594 96.5781 73.65 95.2406C74.5656 93.9656 75.1875 92.5656 75.8437 91.1812C76.4375 89.7969 76.9156 88.3813 77.3062 87.0063C78.0469 84.25 78.3781 81.6313 78.5062 79.3906C78.6125 77.1469 78.55 75.2813 78.4187 73.9313C78.3721 73.3697 78.3054 72.8099 78.2187 72.2531Z" fill="black"/>
</svg>
