<svg width="27" height="24" viewBox="0 0 27 24" fill="none" xmlns="http://www.w3.org/2000/svg">
<path d="M14 0.875C6.78906 0.875 1 5.64844 1 11.4375C1 13.9766 2.06641 16.2617 3.89453 18.0898C3.23438 20.6797 1.10156 22.9141 1.10156 22.9648C1 23.0664 0.949219 23.2695 1 23.4219C1.10156 23.5742 1.20312 23.625 1.40625 23.625C4.75781 23.625 7.29688 22.0508 8.51562 21.0352C10.1914 21.6445 12.0195 22 14 22C21.1602 22 27 17.2773 27 11.4375C27 5.64844 21.1602 0.875 14 0.875ZM7.5 13.0625C6.58594 13.0625 5.875 12.3516 5.875 11.4375C5.875 10.5742 6.58594 9.8125 7.5 9.8125C8.36328 9.8125 9.125 10.5742 9.125 11.4375C9.125 12.3516 8.36328 13.0625 7.5 13.0625ZM14 13.0625C13.0859 13.0625 12.375 12.3516 12.375 11.4375C12.375 10.5742 13.0859 9.8125 14 9.8125C14.8633 9.8125 15.625 10.5742 15.625 11.4375C15.625 12.3516 14.8633 13.0625 14 13.0625ZM20.5 13.0625C19.5859 13.0625 18.875 12.3516 18.875 11.4375C18.875 10.5742 19.5859 9.8125 20.5 9.8125C21.3633 9.8125 22.125 10.5742 22.125 11.4375C22.125 12.3516 21.3633 13.0625 20.5 13.0625Z" fill="black"/>
</svg>
