<svg width="20" height="20" viewBox="0 0 20 20" fill="none" xmlns="http://www.w3.org/2000/svg">
<path d="M7 12C7.26522 12 7.51957 11.8946 7.70711 11.7071C7.89464 11.5196 8 11.2652 8 11C8 10.7348 7.89464 10.4804 7.70711 10.2929C7.51957 10.1054 7.26522 10 7 10C6.73478 10 6.48043 10.1054 6.29289 10.2929C6.10536 10.4804 6 10.7348 6 11C6 11.2652 6.10536 11.5196 6.29289 11.7071C6.48043 11.8946 6.73478 12 7 12ZM14 11C14 11.2652 13.8946 11.5196 13.7071 11.7071C13.5196 11.8946 13.2652 12 13 12C12.7348 12 12.4804 11.8946 12.2929 11.7071C12.1054 11.5196 12 11.2652 12 11C12 10.7348 12.1054 10.4804 12.2929 10.2929C12.4804 10.1054 12.7348 10 13 10C13.2652 10 13.5196 10.1054 13.7071 10.2929C13.8946 10.4804 14 10.7348 14 11Z" fill="#1698DA"/>
<path fill-rule="evenodd" clip-rule="evenodd" d="M10 20C15.523 20 20 15.523 20 10C20 4.477 15.523 0 10 0C4.477 0 0 4.477 0 10C0 15.523 4.477 20 10 20ZM10 18C11.2563 18.0004 12.495 17.7049 13.6159 17.1375C14.7367 16.57 15.7082 15.7466 16.4516 14.7339C17.1949 13.7211 17.6894 12.5475 17.8948 11.3082C18.1002 10.0688 18.0109 8.79843 17.634 7.6C16.799 7.826 15.921 7.946 15.015 7.946C13.249 7.94665 11.5143 7.47941 9.98748 6.59183C8.46069 5.70424 7.1963 4.428 6.323 2.893C4.72983 3.71636 3.45952 5.05114 2.71597 6.68308C1.97242 8.31502 1.79877 10.1495 2.22288 11.8919C2.64699 13.6344 3.64428 15.1839 5.05464 16.2915C6.46501 17.3992 8.20665 18.0009 10 18Z" fill="#1698DA"/>
</svg>
