<svg width="194" height="30" viewBox="0 0 194 30" fill="none" xmlns="http://www.w3.org/2000/svg">
<path d="M21.5267 16.5L22.183 12.1875H18.0111V9.375C18.0111 8.15625 18.5736 7.03125 20.4486 7.03125H22.3705V3.32812C22.3705 3.32812 20.6361 3 18.9955 3C15.5736 3 13.3236 5.10938 13.3236 8.85938V12.1875H9.47987V16.5H13.3236V27H18.0111V16.5H21.5267Z" fill="black"/>
<path d="M65.8674 10.125C66.8049 9.42188 67.6487 8.57812 68.3049 7.59375C67.4612 7.96875 66.4768 8.25 65.4924 8.34375C66.5237 7.73438 67.2737 6.79688 67.6487 5.625C66.7112 6.1875 65.6331 6.60938 64.5549 6.84375C63.6174 5.85938 62.3518 5.29688 60.9456 5.29688C58.2268 5.29688 56.0237 7.5 56.0237 10.2188C56.0237 10.5938 56.0706 10.9688 56.1643 11.3438C52.0862 11.1094 48.4299 9.14062 45.9924 6.1875C45.5706 6.89062 45.3362 7.73438 45.3362 8.67188C45.3362 10.3594 46.1799 11.8594 47.5393 12.75C46.7424 12.7031 45.9456 12.5156 45.2893 12.1406V12.1875C45.2893 14.5781 46.9768 16.5469 49.2268 17.0156C48.8518 17.1094 48.3831 17.2031 47.9612 17.2031C47.6331 17.2031 47.3518 17.1562 47.0237 17.1094C47.6331 19.0781 49.4612 20.4844 51.6174 20.5312C49.9299 21.8438 47.8206 22.6406 45.5237 22.6406C45.1018 22.6406 44.7268 22.5938 44.3518 22.5469C46.5081 23.9531 49.0862 24.75 51.8987 24.75C60.9456 24.75 65.8674 17.2969 65.8674 10.7812C65.8674 10.5469 65.8674 10.3594 65.8674 10.125Z" fill="black"/>
<path d="M90.9424 24V9.98438H86.583V24H90.9424ZM88.7393 8.10938C90.1455 8.10938 91.2705 6.9375 91.2705 5.53125C91.2705 4.17188 90.1455 3.04688 88.7393 3.04688C87.3799 3.04688 86.2549 4.17188 86.2549 5.53125C86.2549 6.9375 87.3799 8.10938 88.7393 8.10938ZM107.208 24H107.255V16.3125C107.255 12.5625 106.411 9.65625 102.005 9.65625C99.8955 9.65625 98.4893 10.8281 97.8799 11.9062H97.833V9.98438H93.6611V24H98.0205V17.0625C98.0205 15.2344 98.3486 13.5 100.599 13.5C102.849 13.5 102.896 15.5625 102.896 17.2031V24H107.208Z" fill="black"/>
<path d="M149.392 8.85938C149.111 7.73438 148.221 6.84375 147.142 6.5625C145.127 6 137.158 6 137.158 6C137.158 6 129.142 6 127.127 6.5625C126.049 6.84375 125.158 7.73438 124.877 8.85938C124.314 10.8281 124.314 15.0469 124.314 15.0469C124.314 15.0469 124.314 19.2188 124.877 21.2344C125.158 22.3594 126.049 23.2031 127.127 23.4844C129.142 24 137.158 24 137.158 24C137.158 24 145.127 24 147.142 23.4844C148.221 23.2031 149.111 22.3594 149.392 21.2344C149.955 19.2188 149.955 15.0469 149.955 15.0469C149.955 15.0469 149.955 10.8281 149.392 8.85938ZM134.533 18.8438V11.25L141.189 15.0469L134.533 18.8438Z" fill="black"/>
<path d="M177.561 9.60938C174.561 9.60938 172.171 12.0469 172.171 15C172.171 18 174.561 20.3906 177.561 20.3906C180.514 20.3906 182.952 18 182.952 15C182.952 12.0469 180.514 9.60938 177.561 9.60938ZM177.561 18.5156C175.639 18.5156 174.046 16.9688 174.046 15C174.046 13.0781 175.593 11.5312 177.561 11.5312C179.483 11.5312 181.03 13.0781 181.03 15C181.03 16.9688 179.483 18.5156 177.561 18.5156ZM184.405 9.42188C184.405 8.71875 183.843 8.15625 183.139 8.15625C182.436 8.15625 181.874 8.71875 181.874 9.42188C181.874 10.125 182.436 10.6875 183.139 10.6875C183.843 10.6875 184.405 10.125 184.405 9.42188ZM187.968 10.6875C187.874 9 187.499 7.5 186.28 6.28125C185.061 5.0625 183.561 4.6875 181.874 4.59375C180.139 4.5 174.936 4.5 173.202 4.59375C171.514 4.6875 170.061 5.0625 168.796 6.28125C167.577 7.5 167.202 9 167.108 10.6875C167.014 12.4219 167.014 17.625 167.108 19.3594C167.202 21.0469 167.577 22.5 168.796 23.7656C170.061 24.9844 171.514 25.3594 173.202 25.4531C174.936 25.5469 180.139 25.5469 181.874 25.4531C183.561 25.3594 185.061 24.9844 186.28 23.7656C187.499 22.5 187.874 21.0469 187.968 19.3594C188.061 17.625 188.061 12.4219 187.968 10.6875ZM185.718 21.1875C185.389 22.125 184.639 22.8281 183.749 23.2031C182.343 23.7656 179.061 23.625 177.561 23.625C176.014 23.625 172.733 23.7656 171.374 23.2031C170.436 22.8281 169.733 22.125 169.358 21.1875C168.796 19.8281 168.936 16.5469 168.936 15C168.936 13.5 168.796 10.2188 169.358 8.8125C169.733 7.92188 170.436 7.21875 171.374 6.84375C172.733 6.28125 176.014 6.42188 177.561 6.42188C179.061 6.42188 182.343 6.28125 183.749 6.84375C184.639 7.17188 185.343 7.92188 185.718 8.8125C186.28 10.2188 186.139 13.5 186.139 15C186.139 16.5469 186.28 19.8281 185.718 21.1875Z" fill="black"/>
</svg>
