<svg width="22" height="22" viewBox="0 0 22 22" fill="none" xmlns="http://www.w3.org/2000/svg">
<path d="M11 21C15.9706 21 20 16.9706 20 12C20 7.02944 15.9706 3 11 3C6.02944 3 2 7.02944 2 12C2 16.9706 6.02944 21 11 21Z" stroke="#1698DA" stroke-width="2" stroke-linecap="round" stroke-linejoin="round"/>
<path d="M11 3V1M14.5 8.5L11 12L14.5 8.5ZM18 18L19 21L18 18ZM4 18L3 21L4 18ZM1 4L4 1L1 4ZM18 1L21 4L18 1Z" stroke="#1698DA" stroke-width="2" stroke-linecap="round" stroke-linejoin="round"/>
</svg>
